<?xml version="1.0" encoding="utf-8"?>
<!-- Generator: Adobe Illustrator 23.0.3, SVG Export Plug-In . SVG Version: 6.00 Build 0)  -->
<svg version="1.1" id="Layer_1" xmlns="http://www.w3.org/2000/svg" xmlns:xlink="http://www.w3.org/1999/xlink" x="0px" y="0px"
	 viewBox="0 0 86 32" style="enable-background:new 0 0 86 32;" xml:space="preserve">
<style type="text/css">
	.st0{fill:#D49C6B;}
</style>
<title>image2vector</title>
<path class="st0" d="M48.8,1.2c-2.5,0.6-3.7,1.9-3.7,3.9c0,2.4,1.3,3.5,5.6,4.6c2.1,0.5,2.8,1.5,1.8,2.4c-1.1,1-3.3,0.4-3.6-1.1
	c-0.1-0.7-0.1-0.7-2.4-0.6l-2,0.1l0.1,0.6c0.2,1,1,2.5,1.7,3.1c2.1,1.8,7.7,1.6,9.7-0.3l0.6-0.6l0.1,0.6c0.4,2.4,2.8,4.6,5.6,5.2
	l0.9,0.2l-0.5,0.7c-1.7,2.3-1.8,6.9-0.1,9.3c2.6,3.7,9.8,3.6,12.2-0.2l0.4-0.7v3.3h11.2v-3.6h-6.7V17.8h-4.5l0,1.6
	c0,1.3,0,1.5-0.2,1.3c-0.9-1.4-2.5-2.6-4.2-2.9l-0.9-0.2l0.9-0.7c2.8-2.1,4.5-5.9,4.1-9C73.6-0.1,62-0.3,57.6,7.7
	c-0.3,0.5-0.5,1-0.5,1s-0.4-0.3-0.9-0.8c-1-1-1.8-1.3-4.5-2c-2.5-0.6-3-1.1-2.2-1.8c0.8-0.8,2.5-0.3,2.9,0.8
	c0.2,0.6,0.2,0.6,2.8,0.5l1.5-0.1l-0.1-0.6C56.3,1.8,52.7,0.2,48.8,1.2L48.8,1.2z M0.9,8.3v7h4.5V9.7h0.5c0.7,0,1.2,0.5,2.6,3.1
	l1.3,2.4l2.5,0c1.4,0,2.5,0,2.5-0.1c0-0.8-2.8-5.4-3.6-5.8l-0.4-0.3l0.9-0.5c3.2-1.7,2.6-6.5-0.9-7.3c-0.4-0.1-2.7-0.2-5.3-0.2H0.9
	L0.9,8.3L0.9,8.3z M69.5,2.5c7.1,1.8,6.4,11.8-1,15.4c-7.6,3.7-14.3-2.4-10.7-9.6C59.9,4,65.2,1.4,69.5,2.5L69.5,2.5z M8.6,4.4
	c1.6,0.8,0.5,2.3-1.7,2.4L5.5,6.9V4.2l1.4,0C7.6,4.2,8.4,4.3,8.6,4.4L8.6,4.4z M67,5.7c-1.2,0.3-2.5,1.6-2.5,2.5c0,1.5,1.2,2,3,1.4
	c1.1-0.4,1.4-0.4,1.6,0c0.4,0.7-0.8,1.3-1.5,0.9c-0.3-0.2-1.6,0.5-1.6,1c0,0.7,1.7,0.9,2.8,0.4c3.4-1.7,2.4-5.3-1.1-4.1
	C66.3,8.2,66,8.2,66,7.8c0-0.6,0.9-1,1.4-0.6c0.2,0.2,1.4-0.7,1.4-1C68.8,5.8,67.7,5.5,67,5.7L67,5.7z M61.9,9
	c-0.7,0.5-0.8,0.4,0.6,2.3c0.8,1.2,1.2,1.8,1.1,2.1c-0.1,0.5-0.6,0.6-1,0.2c-0.2-0.2-0.3-0.2-0.9,0.3c-1.4,1.2,0.7,2.3,2.4,1.1
	c1.8-1.2,1.8-2,0-4.6C62.8,8.5,62.8,8.4,61.9,9L61.9,9z M4.6,17.6c-2.6,0.4-4,1.9-4.1,4.1c0,2.2,1.4,3.5,5,4.4
	c2.2,0.5,2.9,1,2.9,1.7c0,2-3.6,1.8-4-0.2c-0.1-0.7-0.1-0.7-2.4-0.6l-2,0.1l0.1,0.6c0.5,2.9,2.2,4.2,6,4.3c3,0.1,4.1-0.2,5.4-1.5
	l0.9-0.9l0.3,0.4c1.9,2.6,8.4,2.8,10.5,0.3c0.6-0.7,1.3-2.1,1.4-2.7c0-0.4,0-0.5-1.9-1L20.8,26l-0.3,0.8c-0.9,2.6-4.2,2.7-4.9,0
	c-0.2-0.9-0.2-3,0.1-3.9c0.7-2.2,3.4-2.7,4.6-0.7c0.5,0.8,0.3,0.8,2.5,0.3c2-0.5,1.9-0.4,1.5-1.4c-1.8-3.9-8-4.9-11.3-1.7L12,20.2
	l-0.4-0.6C10.7,18,7.7,17.2,4.6,17.6L4.6,17.6z M47.8,17.6c-1.7,0.3-3.4,1.4-4.4,2.8c-0.3,0.4-0.3,0.3-0.3-1.1l0-1.5h-4.5v4.8H34
	v-4.8h-4.5v14H34v-5.6h4.5v5.6h4.5v-3.2l0.5,0.7c2,3.1,8.3,3.6,11.2,1c3.3-3.1,2.7-10-1.1-12C52.2,17.6,49.6,17.3,47.8,17.6
	L47.8,17.6z M7.2,20.5c0.3,0.1,0.6,0.5,0.7,0.9L8.2,22l3.1-0.1l-0.1,0.8c-0.1,1.1-0.2,1.1-1.1,0.7c-0.4-0.2-1.6-0.5-2.6-0.8
	c-2.4-0.6-2.7-0.7-2.8-1.2C4.5,20.5,6.1,20,7.2,20.5L7.2,20.5z M50.4,21.1c2.3,0.6,2.8,5.9,0.6,7.2c-1.6,0.9-3.6,0.1-4.1-1.6
	C46,23.2,47.8,20.3,50.4,21.1z M69.3,21.1c2.7,0.7,2.6,6.8-0.1,7.5c-2.2,0.6-3.6-0.9-3.6-3.8C65.7,21.9,67.1,20.4,69.3,21.1
	L69.3,21.1z"/>
</svg>
